<mxfile host="app.diagrams.net" agent="Mozilla/5.0 (Windows NT 10.0; Win64; x64) AppleWebKit/537.36 (KHTML, like Gecko) Chrome/127.0.0.0 Safari/537.36" version="24.7.7">
  <diagram name="Page-1" id="YlRokgwqSbzARVAhpCF4">
    <mxGraphModel dx="1050" dy="522" grid="1" gridSize="10" guides="1" tooltips="1" connect="1" arrows="1" fold="1" page="1" pageScale="1" pageWidth="827" pageHeight="1169" math="0" shadow="0">
      <root>
        <mxCell id="0" />
        <mxCell id="1" parent="0" />
        <mxCell id="x9cuRgx2pAn1LvmsepL0-9" value="&amp;lt;&amp;lt;class&amp;gt;&amp;gt;&lt;div&gt;Program&lt;/div&gt;" style="shape=umlLifeline;perimeter=lifelinePerimeter;whiteSpace=wrap;html=1;container=1;dropTarget=0;collapsible=0;recursiveResize=0;outlineConnect=0;portConstraint=eastwest;newEdgeStyle={&quot;edgeStyle&quot;:&quot;elbowEdgeStyle&quot;,&quot;elbow&quot;:&quot;vertical&quot;,&quot;curved&quot;:0,&quot;rounded&quot;:0};" vertex="1" parent="1">
          <mxGeometry x="70" y="30" width="100" height="330" as="geometry" />
        </mxCell>
        <mxCell id="x9cuRgx2pAn1LvmsepL0-10" value="" style="html=1;points=[[0,0,0,0,5],[0,1,0,0,-5],[1,0,0,0,5],[1,1,0,0,-5]];perimeter=orthogonalPerimeter;outlineConnect=0;targetShapes=umlLifeline;portConstraint=eastwest;newEdgeStyle={&quot;curved&quot;:0,&quot;rounded&quot;:0};fillColor=#808080;" vertex="1" parent="x9cuRgx2pAn1LvmsepL0-9">
          <mxGeometry x="45" y="90" width="10" height="170" as="geometry" />
        </mxCell>
        <mxCell id="x9cuRgx2pAn1LvmsepL0-13" value="bank : Bank" style="shape=umlLifeline;perimeter=lifelinePerimeter;whiteSpace=wrap;html=1;container=1;dropTarget=0;collapsible=0;recursiveResize=0;outlineConnect=0;portConstraint=eastwest;newEdgeStyle={&quot;edgeStyle&quot;:&quot;elbowEdgeStyle&quot;,&quot;elbow&quot;:&quot;vertical&quot;,&quot;curved&quot;:0,&quot;rounded&quot;:0};" vertex="1" parent="1">
          <mxGeometry x="270" y="30" width="100" height="330" as="geometry" />
        </mxCell>
        <mxCell id="x9cuRgx2pAn1LvmsepL0-14" value="" style="html=1;points=[[0,0,0,0,5],[0,1,0,0,-5],[1,0,0,0,5],[1,1,0,0,-5]];perimeter=orthogonalPerimeter;outlineConnect=0;targetShapes=umlLifeline;portConstraint=eastwest;newEdgeStyle={&quot;curved&quot;:0,&quot;rounded&quot;:0};fillColor=#808080;" vertex="1" parent="x9cuRgx2pAn1LvmsepL0-13">
          <mxGeometry x="45" y="90" width="10" height="160" as="geometry" />
        </mxCell>
        <mxCell id="x9cuRgx2pAn1LvmsepL0-15" style="edgeStyle=orthogonalEdgeStyle;rounded=0;orthogonalLoop=1;jettySize=auto;html=1;curved=0;exitX=1;exitY=0;exitDx=0;exitDy=5;exitPerimeter=0;entryX=0;entryY=0;entryDx=0;entryDy=5;entryPerimeter=0;" edge="1" parent="1" source="x9cuRgx2pAn1LvmsepL0-10" target="x9cuRgx2pAn1LvmsepL0-14">
          <mxGeometry relative="1" as="geometry" />
        </mxCell>
        <mxCell id="x9cuRgx2pAn1LvmsepL0-16" value="&lt;div style=&quot;background-color:#1e1f22;color:#bcbec4&quot;&gt;&lt;pre style=&quot;font-family:&#39;JetBrains Mono&#39;,monospace;font-size:9.8pt;&quot;&gt;DoTransfer&lt;/pre&gt;&lt;/div&gt;" style="edgeLabel;html=1;align=center;verticalAlign=middle;resizable=0;points=[];" vertex="1" connectable="0" parent="x9cuRgx2pAn1LvmsepL0-15">
          <mxGeometry x="-0.1916" y="1" relative="1" as="geometry">
            <mxPoint x="18" y="-24" as="offset" />
          </mxGeometry>
        </mxCell>
        <mxCell id="x9cuRgx2pAn1LvmsepL0-17" value="transaction : TransferTransaction" style="shape=umlLifeline;perimeter=lifelinePerimeter;whiteSpace=wrap;html=1;container=1;dropTarget=0;collapsible=0;recursiveResize=0;outlineConnect=0;portConstraint=eastwest;newEdgeStyle={&quot;edgeStyle&quot;:&quot;elbowEdgeStyle&quot;,&quot;elbow&quot;:&quot;vertical&quot;,&quot;curved&quot;:0,&quot;rounded&quot;:0};" vertex="1" parent="1">
          <mxGeometry x="430" y="30" width="130" height="330" as="geometry" />
        </mxCell>
        <mxCell id="x9cuRgx2pAn1LvmsepL0-18" value="" style="html=1;points=[[0,0,0,0,5],[0,1,0,0,-5],[1,0,0,0,5],[1,1,0,0,-5]];perimeter=orthogonalPerimeter;outlineConnect=0;targetShapes=umlLifeline;portConstraint=eastwest;newEdgeStyle={&quot;curved&quot;:0,&quot;rounded&quot;:0};fillColor=#808080;" vertex="1" parent="x9cuRgx2pAn1LvmsepL0-17">
          <mxGeometry x="60" y="90" width="10" height="150" as="geometry" />
        </mxCell>
        <mxCell id="x9cuRgx2pAn1LvmsepL0-19" style="rounded=0;orthogonalLoop=1;jettySize=auto;html=1;exitX=1.34;exitY=0.197;exitDx=0;exitDy=0;exitPerimeter=0;" edge="1" parent="1">
          <mxGeometry relative="1" as="geometry">
            <mxPoint x="328.4000000000001" y="139.99999999999997" as="sourcePoint" />
            <mxPoint x="490" y="139.99999999999997" as="targetPoint" />
          </mxGeometry>
        </mxCell>
        <mxCell id="x9cuRgx2pAn1LvmsepL0-20" value="&lt;div style=&quot;background-color:#1e1f22;color:#bcbec4&quot;&gt;&lt;pre style=&quot;font-family:&#39;JetBrains Mono&#39;,monospace;font-size:9.8pt;&quot;&gt;ExecuteTransaction&lt;/pre&gt;&lt;/div&gt;" style="edgeLabel;html=1;align=center;verticalAlign=middle;resizable=0;points=[];" vertex="1" connectable="0" parent="x9cuRgx2pAn1LvmsepL0-19">
          <mxGeometry x="-0.0408" y="1" relative="1" as="geometry">
            <mxPoint x="4" y="-23" as="offset" />
          </mxGeometry>
        </mxCell>
        <mxCell id="x9cuRgx2pAn1LvmsepL0-21" value="_theWithdraw : WithdrawTransaction" style="shape=umlLifeline;perimeter=lifelinePerimeter;whiteSpace=wrap;html=1;container=1;dropTarget=0;collapsible=0;recursiveResize=0;outlineConnect=0;portConstraint=eastwest;newEdgeStyle={&quot;edgeStyle&quot;:&quot;elbowEdgeStyle&quot;,&quot;elbow&quot;:&quot;vertical&quot;,&quot;curved&quot;:0,&quot;rounded&quot;:0};" vertex="1" parent="1">
          <mxGeometry x="640" y="30" width="120" height="330" as="geometry" />
        </mxCell>
        <mxCell id="x9cuRgx2pAn1LvmsepL0-22" value="" style="html=1;points=[[0,0,0,0,5],[0,1,0,0,-5],[1,0,0,0,5],[1,1,0,0,-5]];perimeter=orthogonalPerimeter;outlineConnect=0;targetShapes=umlLifeline;portConstraint=eastwest;newEdgeStyle={&quot;curved&quot;:0,&quot;rounded&quot;:0};fillColor=#808080;" vertex="1" parent="x9cuRgx2pAn1LvmsepL0-21">
          <mxGeometry x="55" y="120" width="10" height="60" as="geometry" />
        </mxCell>
        <mxCell id="x9cuRgx2pAn1LvmsepL0-23" style="rounded=0;orthogonalLoop=1;jettySize=auto;html=1;" edge="1" parent="1" target="x9cuRgx2pAn1LvmsepL0-22">
          <mxGeometry relative="1" as="geometry">
            <mxPoint x="500" y="160" as="sourcePoint" />
            <mxPoint x="689.5000000000002" y="160" as="targetPoint" />
          </mxGeometry>
        </mxCell>
        <mxCell id="x9cuRgx2pAn1LvmsepL0-26" value="&lt;div style=&quot;background-color:#1e1f22;color:#bcbec4&quot;&gt;&lt;pre style=&quot;font-family:&#39;JetBrains Mono&#39;,monospace;font-size:9.8pt;&quot;&gt;Execute&lt;/pre&gt;&lt;/div&gt;" style="edgeLabel;html=1;align=center;verticalAlign=middle;resizable=0;points=[];" vertex="1" connectable="0" parent="x9cuRgx2pAn1LvmsepL0-23">
          <mxGeometry x="-0.0308" y="-1" relative="1" as="geometry">
            <mxPoint x="6" y="-31" as="offset" />
          </mxGeometry>
        </mxCell>
        <mxCell id="x9cuRgx2pAn1LvmsepL0-24" value="_theDeposit : DepositTransaction" style="shape=umlLifeline;perimeter=lifelinePerimeter;whiteSpace=wrap;html=1;container=1;dropTarget=0;collapsible=0;recursiveResize=0;outlineConnect=0;portConstraint=eastwest;newEdgeStyle={&quot;edgeStyle&quot;:&quot;elbowEdgeStyle&quot;,&quot;elbow&quot;:&quot;vertical&quot;,&quot;curved&quot;:0,&quot;rounded&quot;:0};" vertex="1" parent="1">
          <mxGeometry x="827" y="30" width="120" height="330" as="geometry" />
        </mxCell>
        <mxCell id="x9cuRgx2pAn1LvmsepL0-25" value="" style="html=1;points=[[0,0,0,0,5],[0,1,0,0,-5],[1,0,0,0,5],[1,1,0,0,-5]];perimeter=orthogonalPerimeter;outlineConnect=0;targetShapes=umlLifeline;portConstraint=eastwest;newEdgeStyle={&quot;curved&quot;:0,&quot;rounded&quot;:0};fillColor=#808080;" vertex="1" parent="x9cuRgx2pAn1LvmsepL0-24">
          <mxGeometry x="55" y="180" width="10" height="40" as="geometry" />
        </mxCell>
        <mxCell id="x9cuRgx2pAn1LvmsepL0-27" style="rounded=0;orthogonalLoop=1;jettySize=auto;html=1;" edge="1" parent="1" target="x9cuRgx2pAn1LvmsepL0-25">
          <mxGeometry relative="1" as="geometry">
            <mxPoint x="500" y="220" as="sourcePoint" />
            <mxPoint x="886.4999999999998" y="220" as="targetPoint" />
          </mxGeometry>
        </mxCell>
        <mxCell id="x9cuRgx2pAn1LvmsepL0-29" value="&lt;div style=&quot;background-color:#1e1f22;color:#bcbec4&quot;&gt;&lt;pre style=&quot;font-family:&#39;JetBrains Mono&#39;,monospace;font-size:9.8pt;&quot;&gt;Execute&lt;/pre&gt;&lt;/div&gt;" style="edgeLabel;html=1;align=center;verticalAlign=middle;resizable=0;points=[];" vertex="1" connectable="0" parent="x9cuRgx2pAn1LvmsepL0-27">
          <mxGeometry x="0.4503" y="3" relative="1" as="geometry">
            <mxPoint x="13" y="-22" as="offset" />
          </mxGeometry>
        </mxCell>
        <mxCell id="x9cuRgx2pAn1LvmsepL0-28" style="rounded=0;orthogonalLoop=1;jettySize=auto;html=1;dashed=1;endArrow=open;endFill=0;" edge="1" parent="1" source="x9cuRgx2pAn1LvmsepL0-21">
          <mxGeometry relative="1" as="geometry">
            <mxPoint x="500" y="195" as="targetPoint" />
          </mxGeometry>
        </mxCell>
        <mxCell id="x9cuRgx2pAn1LvmsepL0-30" style="rounded=0;orthogonalLoop=1;jettySize=auto;html=1;dashed=1;endArrow=open;endFill=0;" edge="1" parent="1">
          <mxGeometry relative="1" as="geometry">
            <mxPoint x="882" y="240" as="sourcePoint" />
            <mxPoint x="500" y="240" as="targetPoint" />
          </mxGeometry>
        </mxCell>
        <mxCell id="x9cuRgx2pAn1LvmsepL0-31" style="rounded=0;orthogonalLoop=1;jettySize=auto;html=1;dashed=1;endArrow=open;endFill=0;" edge="1" parent="1">
          <mxGeometry relative="1" as="geometry">
            <mxPoint x="490" y="250" as="sourcePoint" />
            <mxPoint x="325" y="250" as="targetPoint" />
          </mxGeometry>
        </mxCell>
        <mxCell id="x9cuRgx2pAn1LvmsepL0-32" style="rounded=0;orthogonalLoop=1;jettySize=auto;html=1;dashed=1;endArrow=open;endFill=0;" edge="1" parent="1" target="x9cuRgx2pAn1LvmsepL0-10">
          <mxGeometry relative="1" as="geometry">
            <mxPoint x="315" y="260" as="sourcePoint" />
            <mxPoint x="150" y="260" as="targetPoint" />
          </mxGeometry>
        </mxCell>
      </root>
    </mxGraphModel>
  </diagram>
</mxfile>
